<svg width="22" height="22" viewBox="0 0 22 22" fill="none" xmlns="http://www.w3.org/2000/svg">
<path d="M19.7477 5.95634C20.1666 7.58984 20.1666 10.9998 20.1666 10.9998C20.1666 10.9998 20.1666 14.4098 19.7477 16.0433C19.5149 16.9463 18.8338 17.6567 17.9712 17.8968C16.4046 18.3332 11 18.3332 11 18.3332C11 18.3332 5.59806 18.3332 4.02873 17.8968C3.16248 17.653 2.48231 16.9435 2.25223 16.0433C1.83331 14.4098 1.83331 10.9998 1.83331 10.9998C1.83331 10.9998 1.83331 7.58984 2.25223 5.95634C2.48506 5.05342 3.16615 4.343 4.02873 4.10284C5.59806 3.6665 11 3.6665 11 3.6665C11 3.6665 16.4046 3.6665 17.9712 4.10284C18.8375 4.34667 19.5176 5.05617 19.7477 5.95634ZM9.16665 14.2082L14.6666 10.9998L9.16665 7.7915V14.2082Z" fill="#F32316"/>
</svg>
