<svg width="22" height="22" viewBox="0 0 22 22" fill="none" xmlns="http://www.w3.org/2000/svg">
<path d="M20.3152 5.18484C19.6153 5.4944 18.8732 5.69769 18.1133 5.78801C18.9143 5.30899 19.5137 4.55511 19.8 3.66684C19.0483 4.11418 18.2242 4.42768 17.3653 4.59726C16.7884 3.97996 16.0237 3.57056 15.19 3.43271C14.3564 3.29487 13.5006 3.43629 12.7556 3.83501C12.0107 4.23372 11.4183 4.86739 11.0707 5.63749C10.723 6.40759 10.6395 7.27098 10.8332 8.09343C9.30884 8.01703 7.81763 7.62091 6.45633 6.93079C5.09504 6.24066 3.8941 5.27197 2.93149 4.08759C2.59075 4.67284 2.4117 5.33813 2.41265 6.01534C2.41265 7.34451 3.08915 8.51876 4.11765 9.20626C3.509 9.1871 2.91373 9.02273 2.38149 8.72684V8.77451C2.38167 9.65974 2.68799 10.5177 3.24851 11.2028C3.80904 11.888 4.58926 12.3582 5.4569 12.5338C4.89188 12.6869 4.29944 12.7094 3.7244 12.5998C3.96903 13.3617 4.44583 14.0281 5.08803 14.5056C5.73023 14.9831 6.50569 15.2478 7.30582 15.2627C6.51059 15.8872 5.60007 16.3489 4.62629 16.6213C3.65252 16.8938 2.6346 16.9716 1.63074 16.8503C3.38313 17.9773 5.42308 18.5756 7.50657 18.5737C14.5585 18.5737 18.4149 12.7318 18.4149 7.66534C18.4149 7.50034 18.4103 7.33351 18.403 7.17034C19.1536 6.62783 19.8015 5.95578 20.3161 5.18576L20.3152 5.18484Z" fill="#2BBFFF"/>
</svg>
