<svg width="22" height="22" viewBox="0 0 22 22" fill="none" xmlns="http://www.w3.org/2000/svg">
<path d="M6.36167 4.58327C6.36143 5.0695 6.16804 5.53572 5.82406 5.87937C5.48007 6.22301 5.01365 6.41593 4.52742 6.41569C4.04119 6.41545 3.57497 6.22206 3.23133 5.87807C2.88769 5.53408 2.69476 5.06767 2.69501 4.58144C2.69525 4.09521 2.88864 3.62899 3.23263 3.28535C3.57662 2.9417 4.04303 2.74878 4.52926 2.74902C5.01549 2.74927 5.48171 2.94265 5.82535 3.28664C6.169 3.63063 6.36192 4.09704 6.36167 4.58327ZM6.41667 7.77327H2.75001V19.2499H6.41667V7.77327ZM12.21 7.77327H8.56167V19.2499H12.1733V13.2274C12.1733 9.87244 16.5458 9.56077 16.5458 13.2274V19.2499H20.1667V11.9808C20.1667 6.32494 13.695 6.53577 12.1733 9.31327L12.21 7.77327Z" fill="#2174C0"/>
</svg>
