<svg width="32" height="32" viewBox="0 0 32 32" fill="none" xmlns="http://www.w3.org/2000/svg">
<path d="M0 16C0 7.16344 7.16344 0 16 0C24.8366 0 32 7.16344 32 16C32 24.8366 24.8366 32 16 32C7.16344 32 0 24.8366 0 16Z" fill="#F32316"/>
<path d="M20.7071 16.7071C21.0976 16.3166 21.0976 15.6834 20.7071 15.2929L14.3432 8.92893C13.9526 8.5384 13.3195 8.5384 12.9289 8.92893C12.5384 9.31945 12.5384 9.95261 12.9289 10.3431L18.5858 16L12.9289 21.6568C12.5384 22.0474 12.5384 22.6805 12.9289 23.0711C13.3194 23.4616 13.9526 23.4616 14.3431 23.0711L20.7071 16.7071ZM19 17L20 17L20 15L19 15L19 17Z" fill="white"/>
</svg>
