<svg width="54" height="54" viewBox="0 0 54 54" fill="none" xmlns="http://www.w3.org/2000/svg">
<g filter="url(#filter0_d_208_769)">
<rect x="9" y="5" width="36" height="36" rx="4" fill="#F76057"/>
</g>
<path d="M19.5429 29H34.4571C34.8663 29 35.2588 29.158 35.5481 29.4393C35.8374 29.7206 36 30.1022 36 30.5C36 30.8978 35.8374 31.2794 35.5481 31.5607C35.2588 31.842 34.8663 32 34.4571 32H19.5429C19.1337 32 18.7412 31.842 18.4519 31.5607C18.1626 31.2794 18 30.8978 18 30.5C18 30.1022 18.1626 29.7206 18.4519 29.4393C18.7412 29.158 19.1337 29 19.5429 29V29Z" fill="white"/>
<path d="M34.4571 25H19.5429C19.1337 25 18.7412 24.842 18.4519 24.5607C18.1626 24.2794 18 23.8978 18 23.5C18 23.1022 18.1626 22.7206 18.4519 22.4393C18.7412 22.158 19.1337 22 19.5429 22H34.4571C34.8663 22 35.2588 22.158 35.5481 22.4393C35.8374 22.7206 36 23.1022 36 23.5C36 23.8978 35.8374 24.2794 35.5481 24.5607C35.2588 24.842 34.8663 25 34.4571 25Z" fill="white"/>
<path d="M34.4571 18H19.5429C19.1337 18 18.7412 17.842 18.4519 17.5607C18.1626 17.2794 18 16.8978 18 16.5C18 16.1022 18.1626 15.7206 18.4519 15.4393C18.7412 15.158 19.1337 15 19.5429 15H34.4571C34.8663 15 35.2588 15.158 35.5481 15.4393C35.8374 15.7206 36 16.1022 36 16.5C36 16.8978 35.8374 17.2794 35.5481 17.5607C35.2588 17.842 34.8663 18 34.4571 18Z" fill="white"/>
<defs>
<filter id="filter0_d_208_769" x="0" y="0" width="54" height="54" filterUnits="userSpaceOnUse" color-interpolation-filters="sRGB">
<feFlood flood-opacity="0" result="BackgroundImageFix"/>
<feColorMatrix in="SourceAlpha" type="matrix" values="0 0 0 0 0 0 0 0 0 0 0 0 0 0 0 0 0 0 127 0" result="hardAlpha"/>
<feOffset dy="4"/>
<feGaussianBlur stdDeviation="4.5"/>
<feComposite in2="hardAlpha" operator="out"/>
<feColorMatrix type="matrix" values="0 0 0 0 0 0 0 0 0 0 0 0 0 0 0 0 0 0 0.04 0"/>
<feBlend mode="normal" in2="BackgroundImageFix" result="effect1_dropShadow_208_769"/>
<feBlend mode="normal" in="SourceGraphic" in2="effect1_dropShadow_208_769" result="shape"/>
</filter>
</defs>
</svg>
